<svg width="59" height="58" viewBox="0 0 59 58" fill="none" xmlns="http://www.w3.org/2000/svg">
<path d="M15 45.9166H22.25V33.8333C22.25 33.1485 22.4816 32.5746 22.9447 32.1114C23.4079 31.6482 23.9819 31.4166 24.6666 31.4166H34.3333C35.018 31.4166 35.592 31.6482 36.0552 32.1114C36.5184 32.5746 36.75 33.1485 36.75 33.8333V45.9166H44V24.1666L29.5 13.2916L15 24.1666V45.9166ZM10.1666 45.9166V24.1666C10.1666 23.4013 10.3378 22.6763 10.6802 21.9916C11.0225 21.3069 11.4958 20.743 12.1 20.2999L26.6 9.42492C27.4458 8.78047 28.4125 8.45825 29.5 8.45825C30.5875 8.45825 31.5541 8.78047 32.4 9.42492L46.9 20.2999C47.5041 20.743 47.9774 21.3069 48.3197 21.9916C48.6621 22.6763 48.8333 23.4013 48.8333 24.1666V45.9166C48.8333 47.2457 48.36 48.3836 47.4135 49.3301C46.467 50.2766 45.3291 50.7499 44 50.7499H34.3333C33.6486 50.7499 33.0746 50.5183 32.6114 50.0551C32.1482 49.5919 31.9166 49.018 31.9166 48.3332V36.2499H27.0833V48.3332C27.0833 49.018 26.8517 49.5919 26.3885 50.0551C25.9253 50.5183 25.3513 50.7499 24.6666 50.7499H15C13.6708 50.7499 12.5329 50.2766 11.5864 49.3301C10.6399 48.3836 10.1666 47.2457 10.1666 45.9166Z" fill="white"/>
</svg>
